<?xml version="1.0" encoding="UTF-8" standalone="no"?>
<!DOCTYPE svg PUBLIC "-//W3C//DTD SVG 1.1//EN" "http://www.w3.org/Graphics/SVG/1.1/DTD/svg11.dtd">
<svg width="100%" height="100%" viewBox="0 0 741 211" version="1.1" xmlns="http://www.w3.org/2000/svg" xmlns:xlink="http://www.w3.org/1999/xlink" xml:space="preserve" xmlns:serif="http://www.serif.com/" style="fill-rule:evenodd;clip-rule:evenodd;stroke-linejoin:round;stroke-miterlimit:2;">
    <g transform="matrix(1,0,0,1,-145,-407.886)">
        <g transform="matrix(1,0,0,1,149,408)">
            <path d="M0,0L64,0C68.653,11.632 73.27,23.217 77.582,34.971C83.866,52.068 90.303,69.099 96.938,86.063C97.288,86.96 97.639,87.858 98,88.783C98.987,91.305 99.975,93.827 100.965,96.348C101.259,97.098 101.553,97.848 101.856,98.62C103.319,102.358 103.319,102.358 105,106C108.294,99.709 110.917,93.305 113.422,86.664C113.839,85.567 114.257,84.47 114.687,83.34C116.045,79.769 117.398,76.197 118.75,72.625C119.687,70.16 120.624,67.696 121.562,65.232C124.379,57.823 127.19,50.412 130,43C132.734,35.789 135.469,28.579 138.208,21.37C139.237,18.659 140.263,15.946 141.288,13.233C141.905,11.606 142.523,9.979 143.141,8.352C143.419,7.613 143.697,6.874 143.984,6.112C145.886,1.114 145.886,1.114 147,0C148.933,-0.094 150.87,-0.117 152.805,-0.114C154.046,-0.113 155.287,-0.113 156.566,-0.113C157.931,-0.108 159.295,-0.103 160.66,-0.098C162.049,-0.096 163.437,-0.094 164.826,-0.093C168.487,-0.09 172.148,-0.08 175.81,-0.069C179.543,-0.058 183.276,-0.054 187.01,-0.049C194.34,-0.038 201.67,-0.021 209,0L209,4C208.13,4.147 208.13,4.147 207.242,4.297C202.024,5.296 198.028,6.339 194,10C187.21,21.868 187.21,21.868 188,45L265,45L265,49C264.336,49.11 263.672,49.219 262.988,49.332C255.939,50.407 255.939,50.407 250,54C247.89,60.933 250.5,66.291 253.063,72.813C253.501,73.961 253.939,75.11 254.39,76.294C260.303,91.644 266.652,106.826 273,122C275.165,119.835 275.727,118.455 276.772,115.614C277.109,114.706 277.446,113.798 277.793,112.863C278.151,111.879 278.51,110.896 278.879,109.883C279.251,108.874 279.623,107.865 280.007,106.826C280.793,104.69 281.577,102.553 282.359,100.416C283.556,97.143 284.761,93.874 285.967,90.605C286.73,88.531 287.492,86.457 288.254,84.383C288.795,82.914 288.795,82.914 289.346,81.415C289.68,80.501 290.014,79.587 290.358,78.645C290.798,77.442 290.798,77.442 291.248,76.214C293.37,69.968 294.072,63.991 291.813,57.688C287.751,51.666 282.713,49.931 276,48L276,45L319,45C318.01,43.02 317.02,41.04 316,39C315.264,36.901 315.264,36.901 314.754,35.012C314.559,34.31 314.363,33.607 314.162,32.884C313.964,32.159 313.766,31.434 313.563,30.688C310.253,18.291 310.253,18.291 303,8C298.881,5.936 294.548,4.711 290,4L290,0L370,0L370,3C369.252,3.098 368.505,3.196 367.734,3.297C361.794,4.188 361.794,4.188 356.313,6.5C353.185,12.457 354.903,19.331 356.75,25.488C357.486,27.768 358.236,30.042 359,32.313C359.756,34.598 360.507,36.886 361.25,39.176C361.585,40.175 361.92,41.175 362.266,42.204C362.984,44.939 363.144,47.188 363,50C361.835,49.999 360.671,49.998 359.471,49.997C355.115,50 350.76,50.043 346.405,50.098C344.526,50.116 342.647,50.123 340.769,50.12C327.257,49.677 327.257,49.677 315.509,55.422C315.011,55.943 314.513,56.463 314,57C313.286,57.741 312.572,58.482 311.836,59.246C303.654,71.519 298.563,85.339 293.434,99.081C291.705,103.711 289.954,108.334 288.203,112.957C287.85,113.89 287.497,114.822 287.134,115.783C282.404,128.25 277.436,140.622 272.431,152.981C270.824,156.95 269.231,160.925 267.654,164.906C266.909,166.785 266.16,168.661 265.409,170.537C264.509,172.791 263.613,175.046 262.725,177.304C257.831,189.46 251.576,201.743 238.984,207.258C230.036,210.605 219.722,211.978 210.742,207.973C205.399,204.99 200.781,200.98 199,195C198.097,187.426 197.56,179.79 202.465,173.52C206.769,169.259 210.335,167.77 216.438,167.5C223.233,167.78 227.71,169.71 232.5,174.5C235.743,182.068 234.536,189.934 231.656,197.453C231.44,197.964 231.223,198.474 231,199C239.896,196.536 239.896,196.536 246.152,190.07C250.407,181.802 251.645,173.748 249.035,164.629C247.634,161.031 246.099,157.512 244.5,154C243.911,152.659 243.324,151.316 242.74,149.973C241.493,147.118 240.233,144.268 238.963,141.423C236.985,136.982 235.056,132.521 233.137,128.055C230.486,121.889 227.824,115.729 225.148,109.574C222.649,103.821 220.166,98.061 217.705,92.292C216.259,88.904 214.808,85.518 213.358,82.132C212.669,80.522 211.983,78.911 211.3,77.299C206.022,63.419 206.022,63.419 197,52C194.736,51.216 194.736,51.216 192.313,50.813C191.504,50.654 190.696,50.495 189.863,50.332C189.248,50.222 188.634,50.113 188,50C188.061,61.301 188.139,72.602 188.236,83.903C188.28,89.151 188.32,94.4 188.346,99.648C188.373,104.719 188.413,109.789 188.463,114.859C188.48,116.788 188.491,118.717 188.498,120.645C187.967,136.839 187.967,136.839 194.563,151C198.932,153.542 203.031,154.342 208,155L208,159L127,159L127,155C127.664,154.807 128.328,154.613 129.012,154.414C130.83,153.878 132.643,153.328 134.453,152.766C137,152 137,152 139.938,151.375C143.48,149.013 144.057,145.008 145,141C145.385,137.347 145.381,133.735 145.341,130.064C145.341,129.01 145.341,127.955 145.342,126.868C145.34,123.411 145.317,119.954 145.293,116.496C145.287,114.088 145.283,111.679 145.28,109.271C145.269,102.953 145.239,96.635 145.206,90.317C145.175,83.862 145.162,77.407 145.146,70.951C145.114,58.301 145.064,45.65 145,33C142.307,39.719 139.616,46.438 136.925,53.157C136.014,55.433 135.103,57.708 134.191,59.983C128.197,74.938 122.269,89.918 116.438,104.938C115.751,106.702 115.065,108.467 114.378,110.232C114.076,111.009 113.773,111.787 113.461,112.588C109.951,121.604 106.389,130.597 102.75,139.563C102.105,141.159 102.105,141.159 101.447,142.787C99.184,148.324 96.753,153.689 94,159L83,159C82.578,157.995 82.156,156.991 81.722,155.956C79.732,151.22 77.741,146.485 75.75,141.75C75.385,140.881 75.02,140.013 74.644,139.118C70.617,129.542 66.573,119.976 62.445,110.443C56.036,95.64 49.972,80.707 43.961,65.739C43.611,64.87 43.262,64 42.901,63.104C42.254,61.495 41.609,59.885 40.965,58.275C38.095,51.133 35.049,44.067 32,37C31.884,49.866 31.795,62.731 31.741,75.597C31.715,81.572 31.68,87.546 31.623,93.521C31.568,99.292 31.539,105.062 31.526,110.833C31.516,113.03 31.498,115.227 31.471,117.423C31.435,120.511 31.43,123.597 31.432,126.685C31.405,128.034 31.405,128.034 31.378,129.41C31.436,136.635 33.506,143.366 38.619,148.684C43.281,152.565 49.2,153.71 55,155L55,159L-3,159C-3.33,157.68 -3.66,156.36 -4,155C-2.606,154.671 -2.606,154.671 -1.184,154.336C7.506,152.107 13.387,149.817 18.875,142.5C21.624,136.391 21.16,129.672 21.177,123.104C21.184,122.018 21.19,120.931 21.197,119.811C21.217,116.223 21.228,112.635 21.238,109.047C21.242,107.818 21.246,106.589 21.251,105.324C21.269,99.491 21.284,93.658 21.292,87.825C21.301,81.785 21.32,75.744 21.357,69.704C21.395,63.206 21.414,56.709 21.418,50.212C21.423,47.741 21.435,45.271 21.453,42.801C21.478,39.338 21.477,35.876 21.47,32.413C21.489,30.896 21.489,30.896 21.509,29.349C21.453,21.663 19.974,14.624 15,8.563C10.268,6.098 5.197,5.094 0,4L0,0Z" style="fill:rgb(4,4,4);fill-rule:nonzero;"/>
        </g>
        <g transform="matrix(1,0,0,1,737.812,460.625)">
            <path d="M0,0C6.5,6.154 9.942,13.665 10.326,22.587L10.345,26.257L10.361,28.294C10.371,29.747 10.38,31.2 10.387,32.653C10.399,34.958 10.418,37.262 10.44,39.566C10.501,46.116 10.555,52.665 10.589,59.214C10.61,63.227 10.645,67.24 10.69,71.253C10.704,72.777 10.712,74.3 10.716,75.824C10.721,77.961 10.744,80.097 10.771,82.234L10.796,85.909C11.258,89.995 12.432,92.672 14.188,96.375L15.188,99.375L26.188,101.375L26.188,104.375C24.834,104.691 23.48,105.003 22.125,105.313L19.84,105.84C8.309,108.166 -7.089,110.065 -17.961,104.648C-22.212,101.725 -24.743,98.491 -25.813,93.375L-27.648,94.949C-40.392,105.556 -52.166,109.759 -68.813,108.375C-77.751,106.414 -85.604,102.118 -90.688,94.375C-95.059,87.037 -95.618,79.742 -94.813,71.375C-92.376,62.082 -87.644,56.366 -79.746,51.07C-70.451,45.699 -59.845,43.488 -49.448,41.25C-42.309,39.67 -35.402,37.696 -29.215,33.695C-26.991,30.016 -27.262,26.465 -27.375,22.25L-27.417,19.67C-27.635,12.246 -27.901,5.286 -33.375,-0.188C-37.499,-2.619 -39.945,-3.038 -44.813,-2.625C-47.692,-1.36 -47.692,-1.36 -49.813,1.375C-50.485,4.787 -50.421,8.157 -50.375,11.625C-50.31,18.789 -50.693,24.313 -54.813,30.375C-59.25,34.543 -64.016,34.843 -69.883,34.781C-74.839,34.094 -78.265,31.824 -81.813,28.375C-85.404,22.606 -85.725,16.807 -84.379,10.27C-82.027,2.717 -76.721,-1.835 -69.875,-5.438C-49.897,-14.628 -17.38,-14.207 0,0ZM-28.813,42.375C-29.82,43.476 -29.82,43.476 -31.407,44.251L-33.453,45.301C-34.989,46.098 -36.525,46.893 -38.063,47.688C-42.942,50.185 -47.908,52.464 -51.813,56.375C-55.55,61.568 -56.287,66.396 -56.262,72.703L-56.188,75.625C-56.181,80.936 -56.669,85.716 -53.813,90.375C-50.326,94.028 -48.932,95.215 -43.875,95.938C-39.426,95.615 -36.281,94.116 -32.813,91.375C-28.523,87.017 -27.243,83.233 -27.246,77.178L-27.324,74.504C-27.346,71.636 -27.374,68.77 -27.435,65.903C-27.479,63.914 -27.513,61.924 -27.538,59.935C-27.598,54.081 -27.688,48.228 -27.813,42.375L-28.813,42.375Z" style="fill:rgb(4,4,4);"/>
        </g>
        <g transform="matrix(1,0,0,1,743,453)">
            <path d="M0,0L77,0L77,4C76.336,4.098 75.672,4.196 74.988,4.297C67.566,5.394 67.566,5.394 62,10C62.114,18.402 65.288,25.692 68.375,33.375C68.912,34.734 69.448,36.094 69.983,37.453C71.638,41.643 73.316,45.823 75,50C75.273,50.678 75.546,51.355 75.827,52.053C79.185,60.382 82.576,68.698 86,77C88.85,71.534 91.17,66.128 93.164,60.301C93.581,59.104 93.581,59.104 94.007,57.882C94.885,55.361 95.755,52.837 96.625,50.313C97.503,47.778 98.384,45.244 99.264,42.71C99.809,41.142 100.353,39.572 100.894,38.003C101.927,35.016 102.975,32.061 104.16,29.131C105.975,24.526 105.736,19.364 104.277,14.68C102.323,10.392 100.468,7.87 96,6C93.683,5.278 91.352,4.599 89,4L89,0L142,0C142.33,1.32 142.66,2.64 143,4C142.443,4.147 141.886,4.294 141.313,4.445C130.679,7.571 124.505,13.499 119,23C117.683,25.642 116.476,28.326 115.285,31.027C114.939,31.809 114.594,32.591 114.238,33.396C110.501,41.969 107.233,50.709 103.988,59.477C96.562,79.523 88.764,99.396 80.589,119.147C79.156,122.614 77.75,126.091 76.348,129.57C71.031,142.607 65.391,155.653 51.895,161.988C43.403,165.35 33.74,166.923 25.125,163.25C19.951,160.603 15.541,157.667 12.73,152.391C11.031,146.829 11.163,140.707 12,135C14.928,129.755 18.568,125.716 24,123C30.974,122.196 37.129,122.982 43,127C47.076,131.872 47.557,135.926 47.34,142.199C46.834,146.372 45.606,150.129 44,154C51.542,151.979 56.007,149.429 60.188,142.625C63.434,136.553 65.354,129.872 63.457,123.044C62.639,120.811 61.743,118.626 60.813,116.438C60.459,115.582 60.106,114.726 59.742,113.844C55.75,104.243 51.586,94.712 47.428,85.182C44.663,78.845 41.924,72.498 39.215,66.137C33.541,52.814 27.867,39.496 21.875,26.313C21.238,24.898 21.238,24.898 20.587,23.456C16.382,13.456 16.382,13.456 8.887,6.125C7.831,5.754 6.775,5.383 5.688,5C4.619,4.608 3.55,4.216 2.449,3.813C1.641,3.544 0.833,3.276 0,3L0,0Z" style="fill:rgb(4,4,4);fill-rule:nonzero;"/>
        </g>
        <g transform="matrix(1,0,0,1,622,408)">
            <path d="M0,0L61,0C60.67,1.32 60.34,2.64 60,4C57.996,4.836 57.996,4.836 55.438,5.375C46.614,7.729 40.585,13.202 36,21C29.086,34.27 25.19,48.699 21,63C20.543,64.547 20.086,66.094 19.629,67.641C19.038,69.643 18.449,71.647 17.865,73.651C15.003,83.462 11.989,93.228 9,103C8.443,104.825 8.443,104.825 7.875,106.688C5.699,113.796 3.46,120.885 1.217,127.973C-1.746,137.345 -4.66,146.729 -7.387,156.172C-8,158 -8,158 -9,159C-11,159.088 -13.002,159.107 -15.004,159.098C-16.219,159.094 -17.434,159.091 -18.686,159.088C-19.965,159.08 -21.244,159.071 -22.563,159.063C-23.846,159.058 -25.129,159.053 -26.451,159.049C-29.634,159.037 -32.817,159.021 -36,159C-38.797,153.707 -40.877,148.704 -42.438,142.938C-43.973,137.489 -45.599,132.107 -47.438,126.75C-49.535,120.543 -51.433,114.294 -53.25,108C-53.508,107.115 -53.767,106.231 -54.033,105.319C-54.275,104.471 -54.517,103.624 -54.766,102.75C-54.98,102.002 -55.194,101.255 -55.415,100.484C-56.15,97.364 -56.547,94.173 -57,91L-14,91C-12.195,96.416 -10.413,101.779 -8.813,107.25C-8.468,108.41 -8.124,109.57 -7.77,110.766C-7.079,113.669 -6.838,116.037 -7,119C-4.861,118.211 -4.861,118.211 -4.337,116.29C-4.137,115.528 -3.937,114.766 -3.73,113.98C-3.367,112.633 -3.367,112.633 -2.995,111.258C-2.729,110.244 -2.462,109.231 -2.188,108.188C-1.574,105.921 -0.956,103.655 -0.336,101.391C-0.163,100.759 0.01,100.127 0.188,99.477C1.791,93.666 3.493,87.887 5.211,82.109C5.495,81.153 5.779,80.197 6.072,79.211C7.225,75.336 8.38,71.462 9.541,67.589C19.771,39.723 19.771,39.723 16.324,11.84C13.557,7.995 10.416,5.563 5.77,4.48C3.856,4.227 1.927,4.101 0,4L0,0Z" style="fill:rgb(4,4,4);fill-rule:nonzero;"/>
        </g>
        <g transform="matrix(1,0,0,1,479,499)">
            <path d="M0,0L43,0C45.97,9.24 48.94,18.48 52,28C55.3,18.76 58.6,9.52 62,0L69,0C69.201,4.562 68.558,8.132 67.172,12.473C66.784,13.703 66.396,14.933 65.996,16.201C65.581,17.488 65.166,18.775 64.75,20.063C63.953,22.574 63.156,25.086 62.359,27.598C61.965,28.832 61.57,30.067 61.164,31.339C59.144,37.694 57.199,44.072 55.252,50.45C54.629,52.488 54.002,54.526 53.375,56.563C53.171,57.233 52.968,57.904 52.758,58.596C51.737,61.897 50.592,64.938 49,68C44.563,68.145 40.126,68.234 35.688,68.313C34.425,68.354 33.162,68.396 31.861,68.439C30.653,68.456 29.444,68.472 28.199,68.488C27.084,68.514 25.968,68.541 24.819,68.568C22,68 22,68 20.252,65.933C18.806,62.545 17.732,59.133 16.77,55.586C14.818,48.682 12.695,41.853 10.449,35.039C9.989,33.64 9.989,33.64 9.52,32.212C8.253,28.362 6.981,24.512 5.707,20.664C4.763,17.811 3.825,14.956 2.887,12.102C2.596,11.23 2.306,10.358 2.006,9.46C1.742,8.654 1.478,7.848 1.206,7.018C0.972,6.312 0.739,5.606 0.498,4.879C0,3 0,3 0,0Z" style="fill:rgb(4,4,4);fill-rule:nonzero;"/>
        </g>
        <g transform="matrix(1,0,0,1,530,408)">
            <path d="M0,0L76,0C75.67,1.32 75.34,2.64 75,4C73.969,4.147 73.969,4.147 72.918,4.297C72.017,4.446 71.116,4.596 70.188,4.75C69.294,4.889 68.401,5.028 67.48,5.172C64.96,5.847 64.96,5.847 63.176,7.516C60.013,14.198 62.415,21.599 64.438,28.313C66.66,35.703 67.339,42.063 68,50L25,50C23.524,46.31 22.565,43.423 21.816,39.613C21.611,38.592 21.405,37.57 21.193,36.518C20.777,34.4 20.36,32.283 19.943,30.166C17.782,18.133 17.782,18.133 13,7C9.911,5.858 9.911,5.858 6.375,5.25C5.186,5.008 3.998,4.765 2.773,4.516C1.858,4.345 0.943,4.175 0,4L0,0Z" style="fill:rgb(4,3,3);fill-rule:nonzero;"/>
        </g>
        <g transform="matrix(1,0,0,1,577,470)">
            <path d="M0,0L4,0C6.141,2.625 6.141,2.625 8.25,6C8.956,7.114 9.663,8.227 10.391,9.375C11.187,10.674 11.187,10.674 12,12C12.33,8.04 12.66,4.08 13,0L17,0L17,19C12,18 12,18 9.762,15.277C9.077,14.175 8.393,13.073 7.688,11.938C6.99,10.833 6.293,9.728 5.574,8.59C5.055,7.735 4.535,6.881 4,6C3.67,9.96 3.34,13.92 3,18L0,18L0,0Z" style="fill:rgb(46,45,42);fill-rule:nonzero;"/>
        </g>
        <g transform="matrix(1,0,0,1,608.648,469.566)">
            <path d="M0,0C2.352,0.434 2.352,0.434 4.977,2.309C6.352,4.434 6.352,4.434 6.352,6.434C3.484,5.86 2.49,5.572 0.352,3.434C-2.423,3.078 -4.027,3.07 -6.461,4.496C-8.295,7.489 -7.96,10.012 -7.648,13.434C-5.767,15.723 -5.767,15.723 -2.711,15.809C0.453,15.753 0.453,15.753 2.227,13.434C2.598,12.774 2.969,12.114 3.352,11.434L-2.648,11.434L-2.648,9.434L7.352,9.434L7.352,18.434C-5.329,20.167 -5.329,20.167 -10.023,17.559C-12.214,13.346 -12.514,10.083 -11.648,5.434C-9.137,-0.16 -5.626,-0.274 0,0Z" style="fill:rgb(40,40,37);fill-rule:nonzero;"/>
        </g>
        <g transform="matrix(1,0,0,1,527,470)">
            <path d="M0,0L5,0C6.009,2.413 7.007,4.83 8,7.25L8.867,9.316C10.293,12.814 11,15.169 11,19L8,18L7,14L-2,14L-4,19L-7,19C-5.178,12.388 -2.948,6.195 0,0ZM1,4L0,11L5,11L3,4L1,4Z" style="fill:rgb(24,23,20);"/>
        </g>
        <g transform="matrix(1,0,0,1,549,470)">
            <path d="M0,0C5.783,1.157 6.158,1.912 9.313,6.563C10.01,7.574 10.707,8.586 11.426,9.629C11.945,10.411 12.465,11.194 13,12C13.33,8.04 13.66,4.08 14,0L17,0L17,18L12,18C10.28,15.815 9.006,13.906 7.688,11.5C7.149,10.57 7.149,10.57 6.6,9.621C5.716,8.09 4.856,6.546 4,5C3.67,9.62 3.34,14.24 3,19L0,19L0,0Z" style="fill:rgb(27,26,23);fill-rule:nonzero;"/>
        </g>
        <g transform="matrix(1,0,0,1,503,470)">
            <path d="M0,0C11.489,-0.371 11.489,-0.371 13.867,1.355C15.47,3.683 15.346,5.234 15,8C14.01,9.485 14.01,9.485 13,11C13.33,11.578 13.66,12.155 14,12.75C15,15 15,15 15,19L12,19C11.629,17.866 11.258,16.731 10.875,15.563C10.134,13.619 10.134,13.619 9,12C5.916,10.943 5.916,10.943 3,11L3,9C6.465,8.505 6.465,8.505 10,8C10.33,6.35 10.66,4.7 11,3L2,3L2,18L0,18L0,0Z" style="fill:rgb(38,37,34);fill-rule:nonzero;"/>
        </g>
        <g transform="matrix(1,0,0,1,483,470)">
            <path d="M0,0L17,0L17,2C15.02,2.33 13.04,2.66 11,3C10.67,7.95 10.34,12.9 10,18L7,18L7,2L0,2L0,0Z" style="fill:rgb(12,11,10);fill-rule:nonzero;"/>
        </g>
        <g transform="matrix(1,0,0,1,541,470)">
            <path d="M0,0L4,0L4,19C2.68,18.67 1.36,18.34 0,18L0,0Z" style="fill:rgb(24,23,20);fill-rule:nonzero;"/>
        </g>
        <g transform="matrix(1,0,0,1,570,470)">
            <rect x="0" y="0" width="3" height="19" style="fill:rgb(17,16,12);fill-rule:nonzero;"/>
        </g>
        <g transform="matrix(1,0,0,1,503,470)">
            <path d="M0,0L12,0L12,2C7.545,2.495 7.545,2.495 3,3C2.288,8.071 1.893,12.882 2,18L0,18L0,0Z" style="fill:rgb(3,3,1);fill-rule:nonzero;"/>
        </g>
        <g transform="matrix(1,0,0,1,504,470)">
            <path d="M0,0L11,0L11,2C7.37,2.33 3.74,2.66 0,3L0,0Z" style="fill:rgb(13,12,12);fill-rule:nonzero;"/>
        </g>
        <g transform="matrix(1,0,0,1,598,484)">
            <path d="M0,0C3.558,0.61 6.683,1.578 10,3L10,4L2,4C1.34,2.68 0.68,1.36 0,0Z" style="fill:rgb(29,29,27);fill-rule:nonzero;"/>
        </g>
        <g transform="matrix(1,0,0,1,610,471)">
            <path d="M0,0C1.32,0.33 2.64,0.66 4,1C4.33,2.32 4.66,3.64 5,5C3.68,4.67 2.36,4.34 1,4C0.67,2.68 0.34,1.36 0,0Z" style="fill:rgb(40,39,36);fill-rule:nonzero;"/>
        </g>
    </g>
</svg>
